nColumns=19
nRows=84
DataType=double
version=3
OpenSimVersion=4.1
endheader
time	ground_force_1_vx	ground_force_1_vy	ground_force_1_vz	ground_force_1_px	ground_force_1_py	ground_force_1_pz	ground_force_1_mx	ground_force_1_my	ground_force_1_mz	ground_force_2_vx	ground_force_2_vy	ground_force_2_vz	ground_force_2_px	ground_force_2_py	ground_force_2_pz	ground_force_2_mx	ground_force_2_my	ground_force_2_mz
0	-14.8093	207.522	19.7874	0.096071	0.006	-0.198714	0	-0.046306	0	0	0	0	0.750281	0	-0.262743	0	0	0
0.01	-27.7947	220.559	18.9124	0.0970784	0.006	-0.19922	0	-0.0622074	0	0	0	0	0.750281	0	-0.262743	0	0	0
0.02	-45.7846	255.037	21.0382	0.100391	0.006	-0.20085	0	0.288504	0	0	0	0	0.750281	0	-0.262743	0	0	0
0.03	-56.459	295.756	25.2146	0.105056	0.006	-0.201824	0	1.26161	0	0	0	0	0.750281	0	-0.262743	0	0	0
0.04	-75.3314	349.473	22.4373	0.114566	0.006	-0.200274	0	1.83825	0	0	0	0	0.750281	0	-0.262743	0	0	0
0.05	-105.806	433.226	9.08811	0.129321	0.006	-0.196692	0	1.09059	0	0	0	0	0.750281	0	-0.262743	0	0	0
0.06	-136.109	518.438	-7.0326	0.142088	0.006	-0.193757	0	0.24616	0	0	0	0	0.750281	0	-0.262743	0	0	0
0.07	-149.901	569.518	-17.0262	0.149804	0.006	-0.192178	0	0.325238	0	0	0	0	0.750281	0	-0.262743	0	0	0
0.08	-154.369	594.622	-24.6927	0.155034	0.006	-0.191087	0	0.622586	0	0	0	0	0.750281	0	-0.262743	0	0	0
0.09	-157.063	617.301	-33.7133	0.159342	0.006	-0.19002	0	0.592595	0	0	0	0	0.750281	0	-0.262743	0	0	0
0.1	-157.926	642.572	-40.8207	0.162714	0.006	-0.189211	0	0.598147	0	0	0	0	0.750281	0	-0.262743	0	0	0
0.11	-157.85	668.819	-44.1029	0.165419	0.006	-0.188931	0	0.796661	0	0	0	0	0.750281	0	-0.262743	0	0	0
0.12	-155.504	694.706	-43.8706	0.167345	0.006	-0.189234	0	1.02742	0	0	0	0	0.750281	0	-0.262743	0	0	0
0.13	-148.865	717.509	-41.8384	0.168478	0.006	-0.189838	0	1.1817	0	0	0	0	0.750281	0	-0.262743	0	0	0
0.14	-139.337	733.099	-39.4153	0.169193	0.006	-0.190527	0	1.20826	0	0	0	0	0.750281	0	-0.262743	0	0	0
0.15	-127.851	736.32	-36.0038	0.169688	0.006	-0.191155	0	1.16392	0	0	0	0	0.750281	0	-0.262743	0	0	0
0.16	-115.398	726.98	-33.2998	0.170394	0.006	-0.191459	0	1.03733	0	0	0	0	0.750281	0	-0.262743	0	0	0
0.17	-103.616	708.114	-32.1959	0.171942	0.006	-0.191354	0	0.903011	0	0	0	0	0.750281	0	-0.262743	0	0	0
0.18	-94.0063	682.416	-31.7168	0.174486	0.006	-0.190866	0	0.764924	0	0	0	0	0.750281	0	-0.262743	0	0	0
0.19	-86.4937	652.671	-31.2246	0.177704	0.006	-0.1902	0	0.625432	0	0	0	0	0.750281	0	-0.262743	0	0	0
0.2	-79.8321	622.614	-30.4615	0.181199	0.006	-0.189401	0	0.524683	0	0	0	0	0.750281	0	-0.262743	0	0	0
0.21	-72.5227	593.71	-29.5587	0.184712	0.006	-0.188419	0	0.43986	0	0	0	0	0.750281	0	-0.262743	0	0	0
0.22	-64.4792	565.685	-28.3071	0.188109	0.006	-0.187361	0	0.345378	0	0	0	0	0.750281	0	-0.262743	0	0	0
0.23	-56.6025	538.818	-26.6584	0.191119	0.006	-0.186337	0	0.252601	0	0	0	0	0.750281	0	-0.262743	0	0	0
0.24	-48.9433	514.297	-24.8598	0.193944	0.006	-0.185368	0	0.121128	0	0	0	0	0.750281	0	-0.262743	0	0	0
0.25	-41.741	493.147	-22.942	0.196764	0.006	-0.184438	0	-0.0838033	0	0	0	0	0.750281	0	-0.262743	0	0	0
0.26	-35.3671	475.687	-21.2337	0.199673	0.006	-0.183434	0	-0.336576	0	0	0	0	0.750281	0	-0.262743	0	0	0
0.27	-30.2308	461.936	-20.0675	0.203036	0.006	-0.182117	0	-0.568558	0	0	0	0	0.750281	0	-0.262743	0	0	0
0.28	-26.9046	451.587	-19.3905	0.206992	0.006	-0.18064	0	-0.779078	0	0	0	0	0.750281	0	-0.262743	0	0	0
0.29	-24.9682	444.546	-19.1612	0.211222	0.006	-0.179207	0	-0.963275	0	0	0	0	0.750281	0	-0.262743	0	0	0
0.3	-23.5145	440.822	-19.6566	0.215432	0.006	-0.178012	0	-1.12886	0	0	0	0	0.750281	0	-0.262743	0	0	0
0.31	-22.1966	440.346	-20.6909	0.219427	0.006	-0.1771	0	-1.28102	0	0	0	0	0.750281	0	-0.262743	0	0	0
0.32	-20.7402	443.48	-21.6495	0.223215	0.006	-0.176395	0	-1.45495	0	0	0	0	0.750281	0	-0.262743	0	0	0
0.33	-18.88	450.126	-22.0133	0.226612	0.006	-0.176004	0	-1.62403	0	0	0	0	0.750281	0	-0.262743	0	0	0
0.34	-16.4828	459.659	-21.7984	0.229502	0.006	-0.175865	0	-1.76179	0	0	0	0	0.750281	0	-0.262743	0	0	0
0.35	-13.6835	471.363	-21.3536	0.232136	0.006	-0.175723	0	-1.9346	0	0	0	0	0.750281	0	-0.262743	0	0	0
0.36	-10.7688	484.937	-21.0713	0.234702	0.006	-0.175578	0	-2.15889	0	0	0	0	0.750281	0	-0.262743	0	0	0
0.37	-7.95216	499.473	-21.2021	0.237307	0.006	-0.175476	0	-2.41121	0	0	0	0	0.750281	0	-0.262743	0	0	0
0.38	-4.96522	514.558	-21.8423	0.240049	0.006	-0.175254	0	-2.67827	0	0	0	0	0.750281	0	-0.262743	0	0	0
0.39	-1.5077	530.386	-23.1045	0.242954	0.006	-0.174964	0	-2.96336	0	0	0	0	0.750281	0	-0.262743	0	0	0
0.4	2.36436	546.915	-24.6669	0.245958	0.006	-0.174714	0	-3.28614	0	0	0	0	0.750281	0	-0.262743	0	0	0
0.41	6.89703	565.007	-25.9382	0.248878	0.006	-0.174617	0	-3.63738	0	0	0	0	0.750281	0	-0.262743	0	0	0
0.42	12.3075	584.87	-27.4535	0.251857	0.006	-0.174546	0	-3.90887	0	0	0	0	0.750281	0	-0.262743	0	0	0
0.43	18.0224	605.824	-29.6182	0.255055	0.006	-0.174375	0	-4.06807	0	0	0	0	0.750281	0	-0.262743	0	0	0
0.44	23.9581	626.635	-31.8892	0.258341	0.006	-0.173988	0	-4.112	0	0	0	0	0.750281	0	-0.262743	0	0	0
0.45	30.829	645.667	-33.8525	0.261631	0.006	-0.173407	0	-4.05864	0	0	0	0	0.750281	0	-0.262743	0	0	0
0.46	38.493	661.348	-35.6307	0.264949	0.006	-0.172686	0	-3.93466	0	0	0	0	0.750281	0	-0.262743	0	0	0
0.47	46.0441	672.453	-37.2121	0.268427	0.006	-0.171968	0	-3.76862	0	0	0	0	0.750281	0	-0.262743	0	0	0
0.48	52.8331	680.181	-38.2302	0.27216	0.006	-0.1714	0	-3.59864	0	0	0	0	0.750281	0	-0.262743	0	0	0
0.49	58.825	686.06	-38.4893	0.275909	0.006	-0.171012	0	-3.41988	0	0	0	0	0.750281	0	-0.262743	0	0	0
0.5	64.6698	690.146	-38.1374	0.279544	0.006	-0.170798	0	-3.23834	0	0	0	0	0.750281	0	-0.262743	0	0	0
0.51	71.1023	691.823	-36.918	0.282929	0.006	-0.170754	0	-3.09697	0	0	0	0	0.750281	0	-0.262743	0	0	0
0.52	78.2885	690.53	-34.9948	0.286008	0.006	-0.170801	0	-3.00519	0	0	0	0	0.750281	0	-0.262743	0	0	0
0.53	85.9757	685.694	-33.049	0.288845	0.006	-0.17089	0	-2.86005	0	2.78763	6.94756	-0.866463	0.750384	0.0015	-0.26284	0	0.237311	0
0.54	94.151	676.309	-30.4594	0.291497	0.006	-0.170976	0	-2.6929	0	22.375	65.9223	-5.1157	0.762737	0.006	-0.273309	0	0.967144	0
0.55	102.807	662.151	-26.8603	0.294007	0.006	-0.171011	0	-2.51783	0	21.052	115.156	-7.26761	0.76991	0.006	-0.277138	0	0.979784	0
0.56	110.845	642.292	-23.1932	0.296556	0.006	-0.170961	0	-2.26177	0	7.2139	138.945	-11.0759	0.773079	0.006	-0.275224	0	0.867101	0
0.57	117.539	615.564	-20.0867	0.299346	0.006	-0.170986	0	-1.9044	0	-0.969461	156.205	-16.5946	0.776003	0.006	-0.272414	0	0.511844	0
0.58	123.871	582.66	-16.7281	0.302136	0.006	-0.171224	0	-1.5631	0	-10.6952	173.773	-20.4004	0.780371	0.006	-0.271404	0	-0.0536939	0
0.59	129.504	543.664	-12.5165	0.304988	0.006	-0.17146	0	-1.27553	0	-25.0882	205.604	-23.2221	0.792394	0.006	-0.271919	0	-0.461581	0
0.6	131.218	496.995	-8.61882	0.308219	0.006	-0.171482	0	-0.945186	0	-47.4142	267.289	-21.3269	0.811174	0.006	-0.274335	0	-0.17659	0
0.61	128.88	439.627	-5.45216	0.311942	0.006	-0.171043	0	-0.53374	0	-71.0898	345.953	-12.7126	0.825608	0.006	-0.276961	0	0.669472	0
0.62	122.394	371.182	-2.50574	0.316401	0.006	-0.170156	0	-0.2327	0	-84.0298	415.48	-5.05429	0.833647	0.006	-0.27832	0	1.18681	0
0.63	108.329	296.318	-0.358456	0.321916	0.006	-0.169145	0	-0.122905	0	-89.9489	460.555	-2.36876	0.83859	0.006	-0.278827	0	0.954374	0
0.64	86.7919	221.729	0.455634	0.329117	0.006	-0.16797	0	-0.0408358	0	-94.1548	487.63	0.223926	0.842523	0.006	-0.279363	0	0.632006	0
0.65	60.8731	154.801	0.760064	0.338336	0.006	-0.166881	0	-0.0439956	0	-98.5638	512.182	6.25471	0.846113	0.006	-0.280157	0	0.568398	0
0.66	36.056	101.852	0.491263	0.349499	0.006	-0.16561	0	0.0244257	0	-101.873	537.876	12.3681	0.848842	0.006	-0.280786	0	0.489213	0
0.67	18.2149	63.0099	0.13832	0.361639	0.006	-0.163324	0	0.100019	0	-103.346	565.278	14.8728	0.850776	0.006	-0.281205	0	0.276324	0
0.68	7.82423	34.3341	0.22704	0.375045	0.006	-0.158916	0	0.108753	0	-103.065	595.554	17.1483	0.852024	0.006	-0.281666	0	0.194671	0
0.69	0.547379	3.16576	0.0298609	0.398272	0.0009	-0.154479	0	0.0128211	0	-99.3209	623.994	20.2047	0.852703	0.006	-0.282167	0	0.183795	0
0.7	0	0	0	0.426531	0	-0.154985	0	0	0	-93.6355	646.681	23.1076	0.853543	0.006	-0.282694	0	0.167652	0
0.71	0	0	0	0.454793	0	-0.155522	0	0	0	-87.1618	661.741	26.0728	0.854807	0.006	-0.283486	0	0.264706	0
0.72	0	0	0	0.483056	0	-0.156059	0	0	0	-80.6534	668.265	28.8611	0.856548	0.006	-0.284448	0	0.394416	0
0.73	0	0	0	0.511318	0	-0.156597	0	0	0	-75.3116	665.905	30.9029	0.858946	0.006	-0.285388	0	0.487405	0
0.74	0	0	0	0.53958	0	-0.157134	0	0	0	-70.9896	655.212	32.1995	0.861886	0.006	-0.286262	0	0.567483	0
0.75	0	0	0	0.567842	0	-0.157672	0	0	0	-66.5615	639.923	32.7725	0.865083	0.006	-0.287111	0	0.606026	0
0.76	0	0	0	0.596105	0	-0.158209	0	0	0	-61.8096	623.655	32.1215	0.868399	0.006	-0.287982	0	0.639797	0
0.77	0	0	0	0.624367	0	-0.158746	0	0	0	-56.869	606.64	30.1321	0.871714	0.006	-0.288669	0	0.668224	0
0.78	0	0	0	0.652629	0	-0.159283	0	0	0	-51.7544	588.701	27.1786	0.874948	0.006	-0.289161	0	0.731878	0
0.79	0	0	0	0.680892	0	-0.159821	0	0	0	-46.7683	570.909	23.7673	0.878178	0.006	-0.289619	0	0.813372	0
0.8	0	0	0	0.709154	0	-0.160358	0	0	0	-42.1836	554.271	20.4756	0.881667	0.006	-0.290035	0	0.898578	0
0.81	0	0	0	0.737416	0	-0.160895	0	0	0	-38.0898	538.975	18.0203	0.885659	0.006	-0.290468	0	1.00808	0
0.82	0	0	0	0.765679	0	-0.161433	0	0	0	-34.6586	524.468	16.6558	0.8901	0.006	-0.291027	0	1.1511	0
0.83	0	0	0	0.793941	0	-0.16197	0	0	0	-31.9326	510.769	16.1018	0.894721	0.006	-0.291617	0	1.26867	0
